<svg height="512pt" viewBox="0 0 512 512" width="512pt" xmlns="http://www.w3.org/2000/svg"><path d="m452.265625 59.734375v426.664063c-.027344 9.414062-7.652344 17.039062-17.066406 17.066406h-375.464844c-9.414063-.027344-17.039063-7.652344-17.066406-17.066406v-426.664063zm0 0" fill="#549414"/><path d="m426.667969 59.734375v426.664063c-.027344 9.414062-7.652344 17.039062-17.066407 17.066406h-349.867187c-9.414063-.027344-17.039063-7.652344-17.066406-17.066406v-426.664063zm0 0" fill="#60a917"/><path d="m503.464844 34.132812c.011718 6.792969-2.683594 13.308594-7.484375 18.113282-4.804688 4.800781-11.320313 7.496094-18.113281 7.488281h-443.734376v-51.199219h443.734376c6.792968-.011718 13.308593 2.683594 18.113281 7.484375 4.800781 4.804688 7.496093 11.320313 7.484375 18.113281zm0 0" fill="#90ac00"/><path d="m477.867188 34.132812c.007812 6.792969-2.6875 13.308594-7.488282 18.113282-4.804687 4.800781-11.320312 7.496094-18.113281 7.488281h-418.132813v-51.199219h418.132813c6.792969-.011718 13.308594 2.683594 18.113281 7.484375 4.800782 4.804688 7.496094 11.320313 7.488282 18.113281zm0 0" fill="#a4c400"/><path d="m59.734375 34.132812c0 14.140626-11.460937 25.601563-25.601563 25.601563-14.136718 0-25.597656-11.460937-25.597656-25.601563 0-14.136718 11.460938-25.597656 25.597656-25.597656 14.140626 0 25.601563 11.460938 25.601563 25.597656zm0 0" fill="#3f51b5"/><path d="m477.867188 68.265625h-443.734376c-4.710937 0-8.53125-3.820313-8.53125-8.53125 0-4.714844 3.820313-8.535156 8.53125-8.535156h443.734376c9.425781 0 17.066406-7.640625 17.066406-17.066407 0-9.425781-7.640625-17.066406-17.066406-17.066406h-443.734376c-4.710937 0-8.53125-3.820312-8.53125-8.53125 0-4.714844 3.820313-8.535156 8.53125-8.535156h443.734376c18.851562 0 34.132812 15.28125 34.132812 34.132812 0 18.851563-15.28125 34.132813-34.132812 34.132813zm0 0"/><path d="m34.132812 68.265625c-18.851562 0-34.132812-15.28125-34.132812-34.132813 0-18.851562 15.28125-34.132812 34.132812-34.132812 18.851563 0 34.132813 15.28125 34.132813 34.132812-.019531 18.84375-15.289063 34.113282-34.132813 34.132813zm0-51.199219c-9.425781 0-17.066406 7.640625-17.066406 17.066406 0 9.425782 7.640625 17.066407 17.066406 17.066407 9.425782 0 17.066407-7.640625 17.066407-17.066407-.007813-9.421874-7.644531-17.058593-17.066407-17.066406zm0 0"/><path d="m435.199219 512h-375.464844c-14.132813-.015625-25.585937-11.46875-25.601563-25.601562v-426.664063c0-4.714844 3.820313-8.535156 8.535157-8.535156h409.597656c4.714844 0 8.535156 3.820312 8.535156 8.535156v426.664063c-.015625 14.132812-11.46875 25.585937-25.601562 25.601562zm-384-443.734375v418.132813c.007812 4.710937 3.824219 8.527343 8.535156 8.535156h375.464844c4.710937-.007813 8.527343-3.824219 8.535156-8.535156v-418.132813zm0 0"/><path d="m418.132812 477.867188h-341.332031c-4.714843 0-8.535156-3.820313-8.535156-8.535157 0-4.710937 3.820313-8.53125 8.535156-8.53125h341.332031c4.714844 0 8.535157 3.820313 8.535157 8.53125 0 4.714844-3.820313 8.535157-8.535157 8.535157zm0 0"/><path d="m486.398438 85.332031c-4.710938 0-8.53125-3.820312-8.53125-8.53125v-17.066406c0-4.714844 3.820312-8.535156 8.53125-8.535156 4.714843 0 8.535156 3.820312 8.535156 8.535156v17.066406c0 4.710938-3.820313 8.53125-8.535156 8.53125zm0 0"/><path d="m486.398438 153.601562c-4.710938 0-8.53125-3.820312-8.53125-8.535156v-34.132812c0-4.714844 3.820312-8.535156 8.53125-8.535156 4.714843 0 8.535156 3.820312 8.535156 8.535156v34.132812c0 4.714844-3.820313 8.535156-8.535156 8.535156zm0 0"/><path d="m486.398438 221.867188c-4.710938 0-8.53125-3.820313-8.53125-8.535157v-34.132812c0-4.710938 3.820312-8.53125 8.53125-8.53125 4.714843 0 8.535156 3.820312 8.535156 8.53125v34.132812c0 4.714844-3.820313 8.535157-8.535156 8.535157zm0 0"/><path d="m486.398438 290.132812c-4.710938 0-8.53125-3.820312-8.53125-8.53125v-34.136718c0-4.710938 3.820312-8.53125 8.53125-8.53125 4.714843 0 8.535156 3.820312 8.535156 8.53125v34.136718c0 4.710938-3.820313 8.53125-8.535156 8.53125zm0 0"/><path d="m486.398438 358.398438c-4.710938 0-8.53125-3.820313-8.53125-8.53125v-34.132813c0-4.714844 3.820312-8.535156 8.53125-8.535156 4.714843 0 8.535156 3.820312 8.535156 8.535156v34.132813c0 4.710937-3.820313 8.53125-8.535156 8.53125zm0 0"/><path d="m486.398438 426.667969c-4.710938 0-8.53125-3.820313-8.53125-8.535157v-34.132812c0-4.710938 3.820312-8.535156 8.53125-8.535156 4.714843 0 8.535156 3.824218 8.535156 8.535156v34.132812c0 4.714844-3.820313 8.535157-8.535156 8.535157zm0 0"/><path d="m76.800781 187.734375c-4.714843 0-8.535156-3.820313-8.535156-8.535156v-119.464844c0-4.714844 3.820313-8.535156 8.535156-8.535156 4.710938 0 8.53125 3.820312 8.53125 8.535156v119.464844c0 4.714843-3.820312 8.535156-8.53125 8.535156zm0 0"/><path d="m76.800781 238.933594c-4.714843 0-8.535156-3.820313-8.535156-8.535156v-17.066407c0-4.710937 3.820313-8.53125 8.535156-8.53125 4.710938 0 8.53125 3.820313 8.53125 8.53125v17.066407c0 4.714843-3.820312 8.535156-8.53125 8.535156zm0 0"/><path d="m110.933594 145.066406c-4.714844 0-8.535156-3.820312-8.535156-8.53125v-76.800781c0-4.714844 3.820312-8.535156 8.535156-8.535156 4.710937 0 8.53125 3.820312 8.53125 8.535156v76.800781c0 4.710938-3.820313 8.53125-8.53125 8.53125zm0 0"/><path d="m145.066406 110.933594c-4.710937 0-8.53125-3.820313-8.53125-8.535156v-42.664063c0-4.714844 3.820313-8.535156 8.53125-8.535156 4.714844 0 8.535156 3.820312 8.535156 8.535156v42.664063c0 4.714843-3.820312 8.535156-8.535156 8.535156zm0 0"/></svg>