<svg id="color" enable-background="new 0 0 24 24" height="512" viewBox="0 0 24 24" width="512" xmlns="http://www.w3.org/2000/svg"><path d="m15.75 20h-10.5c-1.241 0-2.25-1.01-2.25-2.25v-6.25h-1.75c-.689 0-1.25-.561-1.25-1.25 0-.348.148-.682.406-.916l9.576-9.127c.29-.275.746-.275 1.035 0l2.483 2.363v-.82c0-.414.336-.75.75-.75h3c.414 0 .75.336.75.75v5.108l2.607 2.488c.245.222.393.556.393.904 0 .689-.561 1.25-1.25 1.25h-1.75v6.25c0 1.24-1.009 2.25-2.25 2.25z" fill="#cfd8dc"/><path d="m10.5 0c-.186 0-.373.069-.518.207l-9.576 9.127c-.258.234-.406.568-.406.916 0 .689.561 1.25 1.25 1.25h1.75v6.25c0 1.24 1.009 2.25 2.25 2.25h5.25z" fill="#b4bcc0"/><path d="m17.5 11c-3.584 0-6.5 2.916-6.5 6.5s2.916 6.5 6.5 6.5 6.5-2.916 6.5-6.5-2.916-6.5-6.5-6.5z" fill="#f44336"/><path d="m20.207 18.793c.391.391.391 1.023 0 1.414s-1.023.391-1.414 0l-1.293-1.293-1.293 1.293c-.391.391-1.023.391-1.414 0s-.391-1.023 0-1.414l1.293-1.293-1.293-1.293c-.391-.391-.391-1.023 0-1.414s1.023-.391 1.414 0l1.293 1.293 1.293-1.293c.391-.391 1.023-.391 1.414 0s.391 1.023 0 1.414l-1.293 1.293z" fill="#fff"/><path d="m17.5 11c-3.584 0-6.5 2.916-6.5 6.5s2.916 6.5 6.5 6.5v-5.086l-1.293 1.293c-.195.195-.451.293-.707.293s-.512-.098-.707-.293c-.391-.391-.391-1.023 0-1.414l1.293-1.293-1.293-1.293c-.391-.391-.391-1.023 0-1.414.195-.195.451-.293.707-.293s.512.098.707.293l1.293 1.293z" fill="#d43a2f"/><path d="m15.5 14.5c-.256 0-.512.098-.707.293-.391.391-.391 1.023 0 1.414l1.293 1.293-1.293 1.293c-.391.391-.391 1.023 0 1.414.195.195.451.293.707.293s.512-.098.707-.293l1.293-1.293v-2.828l-1.293-1.293c-.195-.195-.451-.293-.707-.293z" fill="#dedede"/></svg>