<svg id="color" enable-background="new 0 0 24 24" height="512" viewBox="0 0 24 24" width="512" xmlns="http://www.w3.org/2000/svg"><path d="m19 24h-14c-1.103 0-2-.897-2-2v-9h-2c-.561 0-1-.439-1-1 0-.265.108-.525.296-.713l11.354-11.144c.194-.19.505-.19.701 0l3.649 3.585v-2.228c0-.276.224-.5.5-.5h4c.276 0 .5.224.5.5v7.13l2.701 2.653c.191.192.299.452.299.717 0 .561-.439 1-1 1h-2v9c0 1.103-.897 2-2 2z" fill="#cfd8dc"/><path d="m12.86 7.153c-.149-.154-.378-.196-.572-.106-.194.091-.309.295-.285.508.244 2.201-.775 2.835-1.955 3.569-.96.598-2.048 1.274-2.048 2.876 0 1.205.544 2.273 1.387 3.007-.617.673-1.345 1.223-2.001 1.587-.362.201-.493.658-.292 1.02.203.365.661.491 1.02.292.886-.492 1.834-1.222 2.604-2.132.782-.982 1.282-2.253 1.282-3.774 0 0 .648 2.48.267 3.972 2.065-.147 3.706-1.858 3.699-3.884.023-.128.516-3.169-3.106-6.935z" fill="#4caf50"/><path d="m12 0c-.126 0-.253.048-.35.143l-11.354 11.144c-.188.188-.296.448-.296.713 0 .561.439 1 1 1h2v9c0 1.103.897 2 2 2h7v-10c0 1.521-.5 2.792-1.281 3.773-.77.911-1.719 1.64-2.604 2.132-.116.065-.241.095-.364.095-.262 0-.518-.138-.656-.386-.201-.362-.071-.819.292-1.02.656-.364 1.384-.914 2.001-1.587-.844-.734-1.388-1.802-1.388-3.007 0-1.602 1.088-2.278 2.048-2.875.933-.581 1.765-1.098 1.952-2.377v-1.238c0-.007 0-.013 0-.02z" fill="#b4bcc0"/><path d="m12 8.747c-.187 1.279-1.02 1.797-1.952 2.377-.96.598-2.048 1.274-2.048 2.876 0 1.205.544 2.273 1.387 3.007-.617.673-1.345 1.223-2.001 1.587-.362.201-.493.658-.292 1.02.138.249.394.386.657.386.124 0 .249-.03.364-.094.886-.492 1.834-1.222 2.604-2.132.781-.982 1.281-2.253 1.281-3.774zm0-1.257v.02z" fill="#429846"/></svg>