<svg id="color" enable-background="new 0 0 24 24" height="512" viewBox="0 0 24 24" width="512" xmlns="http://www.w3.org/2000/svg"><path d="m15.75 20h-10.5c-1.241 0-2.25-1.01-2.25-2.25v-6.25h-1.75c-.689 0-1.25-.561-1.25-1.25 0-.348.148-.682.406-.916l9.576-9.127c.29-.275.746-.275 1.035 0l2.483 2.363v-.82c0-.414.336-.75.75-.75h3c.414 0 .75.336.75.75v5.108l2.607 2.488c.245.222.393.556.393.904 0 .689-.561 1.25-1.25 1.25h-1.75v6.25c0 1.24-1.009 2.25-2.25 2.25z" fill="#cfd8dc"/><path d="m10.5 0c-.186 0-.373.069-.518.207l-9.576 9.127c-.258.234-.406.568-.406.916 0 .689.561 1.25 1.25 1.25h1.75v6.25c0 1.24 1.009 2.25 2.25 2.25h5.25z" fill="#b4bcc0"/><path d="m17.053 23.852c-.62-.461-6.053-4.602-6.053-8.114 0-2.061 1.683-3.738 3.75-3.738 1.063 0 2.054.446 2.75 1.194.696-.748 1.687-1.194 2.75-1.194 2.067 0 3.75 1.677 3.75 3.738 0 3.512-5.433 7.653-6.053 8.114-.265.197-.629.197-.894 0z" fill="#f44336"/><path d="m14.75 12c-2.067 0-3.75 1.677-3.75 3.738 0 3.512 5.433 7.653 6.053 8.114.133.099.29.148.447.148v-10.806c-.696-.748-1.687-1.194-2.75-1.194z" fill="#d43a2f"/></svg>