<svg id="color" enable-background="new 0 0 24 24" height="512" viewBox="0 0 24 24" width="512" xmlns="http://www.w3.org/2000/svg"><path d="m19 24h-14c-1.104 0-2-.897-2-2v-9h-2c-.561 0-1-.439-1-1 0-.265.107-.525.297-.713l11.353-11.144c.193-.19.505-.19.7 0l3.65 3.585v-2.228c0-.276.224-.5.5-.5h4c.276 0 .5.224.5.5v7.13l2.701 2.653c.192.192.299.452.299.717 0 .561-.439 1-1 1h-2v9c0 1.103-.896 2-2 2z" fill="#cfd8dc"/><path d="m12.023 20c-3.321 0-6.023-2.709-6.023-6.039 0-2.956 2.106-5.459 5.007-5.951.594-.106 1.075.522.794 1.078-.309.611-.466 1.28-.466 1.988 0 2.732 2.43 4.944 5.292 4.472.596-.098 1.063.515.799 1.065-.992 2.058-3.113 3.387-5.403 3.387z" fill="#607d8b"/><path d="m12 0c-.126 0-.253.048-.349.143l-11.354 11.144c-.19.188-.297.448-.297.713 0 .561.439 1 1 1h2v9c0 1.103.896 2 2 2h7v-4c-3.31-.013-6-2.717-6-6.039 0-2.956 2.106-5.459 5.007-5.951.045-.008.089-.012.132-.012.53 0 .922.576.662 1.09-.309.611-.466 1.28-.466 1.988 0 .863.243 1.675.665 2.366z" fill="#b4bcc0"/><path d="m11.139 7.999c-.043 0-.088.004-.132.012-2.902.491-5.007 2.994-5.007 5.95 0 3.322 2.69 6.026 6 6.039v-6.557c-.422-.691-.665-1.503-.665-2.366 0-.709.157-1.377.466-1.988.26-.514-.132-1.09-.662-1.09z" fill="#546d79"/></svg>